<svg xmlns="http://www.w3.org/2000/svg" xml:space="preserve" width="2000" height="1500" data-id="lg_zeBn3YarA5VNil8o5x" data-version="1" viewBox="0 0 2000 1500"><path fill="#111" stroke="transparent" d="M0 0h2000v1500H0z"/><g data-padding="20"><g transform="translate(-1164.723 -878.148)scale(2.12284)"><rect width="686" height="369.51" x="265.18" y="165.252" fill="none" rx="0" ry="0" transform="translate(411.55 416.96)"/><path fill="#fff" d="m868.75 861.927-71.94-219.74-71.62 219.74v-.33q-1.96 4.91-5.39 8.02-3.44 3.1-8.34 3.1-2.62 0-5.07-.49t-5.07-1.14h.33q-18.64-5.89-13.74-20.93l74.56-226.61q1.64-5.23 5.72-8.83 4.09-3.6 9.65-4.25 5.56-.98 10.79-1.47t8.18-.49q2.94 0 8.17.49t10.79 1.14q4.58.65 8.99 4.91 4.42 4.25 6.71 8.5 18.31 56.24 37.11 113.3 18.81 57.06 37.12 113.31 4.58 15.04-13.74 20.93-2.61.65-4.74 1.14-2.12.49-4.74.49-4.58 0-8.34-3.1-3.76-3.11-5.39-8.02Zm-47.42-70.63q0 10.46-7.36 17.82-7.35 7.36-17.82 7.36-10.46 0-17.66-7.36-7.19-7.36-7.19-17.82 0-10.47 7.19-17.82 7.2-7.36 17.66-7.36 10.47 0 17.82 7.36 7.36 7.35 7.36 17.82m229.88-17.65h-45.12q-5.56 0-8.67-4.41-3.11-4.42-3.11-11.94 0-16.68 13.74-16.68h34.66q12.1 0 17.17-6.86 5.07-6.87 5.07-15.05v-53.62q0-8.18-5.07-15.05-5.07-6.86-17.17-6.86h-68.67v213.53q0 15.69-19.62 15.69-18.97 0-18.97-15.69v-226.94q0-11.77 5.89-15.7 5.89-3.92 14.39-3.92h95.48q8.18 0 17.33 3.6 9.16 3.59 17.66 9.15h-.33q8.51 6.22 13.08 16.19 4.58 9.97 4.58 23.05v59.19q0 26.49-17.66 39.57-8.5 6.21-17.33 9.48t-17.33 3.27m162.85-53.31h63.11q8.5 0 17.66 3.6 9.15 3.59 17.66 9.48h-.33q8.5 5.89 13.08 16.02 4.58 10.14 4.58 23.22v44.8q0 26.49-17.66 39.57-8.5 6.21-17.5 9.64-8.99 3.44-17.49 3.44h-71.29q-8.5 0-17.49-3.44-8.99-3.43-17.5-9.64-17.65-13.08-17.65-39.57v-21.58q0-15.37 19.29-15.37 19.62 0 19.62 15.37v18.96q0 8.5 4.9 15.37 4.91 6.87 17.01 6.87h54.93q12.1 0 17.01-6.87 4.9-6.87 4.9-15.37v-39.56q0-8.18-4.9-15.21-4.91-7.03-17.01-7.03h-63.11q-17 0-34.99-12.43-17.65-13.73-17.65-39.56v-38.92q0-13.08 4.57-23.05 4.58-9.97 13.08-16.19h-.32q8.5-5.56 17.66-9.15 9.15-3.6 17.65-3.6h71.29q8.5 0 17.66 3.6 9.15 3.59 17.66 9.15h-.33q8.5 6.22 13.08 16.19t4.58 23.05v19.3q0 15.37-19.62 15.37-19.3 0-19.3-15.37v-16.35q0-8.18-4.9-15.05-4.91-6.86-17.01-6.86h-54.93q-12.1 0-17.01 6.86-4.9 6.87-4.9 15.05v33.35q0 8.5 4.9 15.21 4.91 6.7 17.01 6.7"/></g><path fill="transparent" stroke="transparent" stroke-width="2.187" d="M250 345.481h1500v809.038H250z"/></g></svg>