<svg width="430" height="505" viewBox="0 0 430 505" fill="none" xmlns="http://www.w3.org/2000/svg">
<path d="M318.785 10.5501C311.734 15.6607 302.551 22.4432 291.822 30.6528C266.212 50.2495 231.796 77.9803 196.574 110.516C161.353 143.05 125.318 180.397 96.4744 219.227C67.6364 258.049 45.959 298.393 39.5069 336.917C36.2663 356.266 41.1739 371.684 52.006 383.852C62.8184 395.997 79.5013 404.87 99.7598 411.234C140.277 423.962 195.306 426.72 246.988 425.367C286.931 424.321 324.907 420.818 352.697 417.547C338.02 420.381 322.346 423.666 306.073 427.076C291.458 430.139 276.36 433.303 261.066 436.332C219.786 444.51 177.05 451.716 138.413 453.349C99.7615 454.984 65.289 451.037 40.4846 436.979C15.731 422.949 0.539059 398.811 0.5 359.853C0.500097 321.08 21.3264 279.23 52.6671 238.221C83.9979 197.224 125.783 157.136 167.586 121.901C209.385 86.6674 251.187 56.2979 282.54 34.736C297.303 24.5834 309.749 16.3842 318.785 10.5501Z" fill="url(#paint0_linear_0_1)" fill-opacity="0.82" stroke="black"/>
<g filter="url(#filter0_dd_0_1)">
<path d="M327.829 0L380 27.0877L114.4 497H48L327.829 0Z" fill="url(#paint1_linear_0_1)"/>
<path d="M114.108 496.5H48.8553L328.027 0.666466L379.31 27.2927L114.108 496.5Z" stroke="black"/>
</g>
<path d="M327.5 0.5H384.5V424.5H327.5V0.5Z" fill="url(#paint2_linear_0_1)" stroke="black"/>
<g filter="url(#filter1_d_0_1)">
<path d="M220 282H342V329H193L220 282Z" fill="url(#paint3_linear_0_1)"/>
<path d="M193.864 328.5L220.289 282.5H341.5V328.5H193.864Z" stroke="black"/>
</g>
<g filter="url(#filter2_d_0_1)">
<path d="M426 306L339.75 360.56V251.44L426 306Z" fill="url(#paint4_linear_0_1)"/>
<path d="M340.25 252.348L425.065 306L340.25 359.652V252.348Z" stroke="black"/>
</g>
<defs>
<filter id="filter0_dd_0_1" x="44" y="0" width="340" height="505" filterUnits="userSpaceOnUse" color-interpolation-filters="sRGB">
<feFlood flood-opacity="0" result="BackgroundImageFix"/>
<feColorMatrix in="SourceAlpha" type="matrix" values="0 0 0 0 0 0 0 0 0 0 0 0 0 0 0 0 0 0 127 0" result="hardAlpha"/>
<feOffset dy="4"/>
<feGaussianBlur stdDeviation="2"/>
<feComposite in2="hardAlpha" operator="out"/>
<feColorMatrix type="matrix" values="0 0 0 0 0 0 0 0 0 0 0 0 0 0 0 0 0 0 0.25 0"/>
<feBlend mode="normal" in2="BackgroundImageFix" result="effect1_dropShadow_0_1"/>
<feColorMatrix in="SourceAlpha" type="matrix" values="0 0 0 0 0 0 0 0 0 0 0 0 0 0 0 0 0 0 127 0" result="hardAlpha"/>
<feOffset dy="4"/>
<feGaussianBlur stdDeviation="2"/>
<feComposite in2="hardAlpha" operator="out"/>
<feColorMatrix type="matrix" values="0 0 0 0 0 0 0 0 0 0 0 0 0 0 0 0 0 0 0.25 0"/>
<feBlend mode="normal" in2="effect1_dropShadow_0_1" result="effect2_dropShadow_0_1"/>
<feBlend mode="normal" in="SourceGraphic" in2="effect2_dropShadow_0_1" result="shape"/>
</filter>
<filter id="filter1_d_0_1" x="189" y="282" width="157" height="55" filterUnits="userSpaceOnUse" color-interpolation-filters="sRGB">
<feFlood flood-opacity="0" result="BackgroundImageFix"/>
<feColorMatrix in="SourceAlpha" type="matrix" values="0 0 0 0 0 0 0 0 0 0 0 0 0 0 0 0 0 0 127 0" result="hardAlpha"/>
<feOffset dy="4"/>
<feGaussianBlur stdDeviation="2"/>
<feComposite in2="hardAlpha" operator="out"/>
<feColorMatrix type="matrix" values="0 0 0 0 0 0 0 0 0 0 0 0 0 0 0 0 0 0 0.25 0"/>
<feBlend mode="normal" in2="BackgroundImageFix" result="effect1_dropShadow_0_1"/>
<feBlend mode="normal" in="SourceGraphic" in2="effect1_dropShadow_0_1" result="shape"/>
</filter>
<filter id="filter2_d_0_1" x="335.75" y="251.44" width="94.25" height="117.119" filterUnits="userSpaceOnUse" color-interpolation-filters="sRGB">
<feFlood flood-opacity="0" result="BackgroundImageFix"/>
<feColorMatrix in="SourceAlpha" type="matrix" values="0 0 0 0 0 0 0 0 0 0 0 0 0 0 0 0 0 0 127 0" result="hardAlpha"/>
<feOffset dy="4"/>
<feGaussianBlur stdDeviation="2"/>
<feComposite in2="hardAlpha" operator="out"/>
<feColorMatrix type="matrix" values="0 0 0 0 0 0 0 0 0 0 0 0 0 0 0 0 0 0 0.25 0"/>
<feBlend mode="normal" in2="BackgroundImageFix" result="effect1_dropShadow_0_1"/>
<feBlend mode="normal" in="SourceGraphic" in2="effect1_dropShadow_0_1" result="shape"/>
</filter>
<linearGradient id="paint0_linear_0_1" x1="198.617" y1="0" x2="198.617" y2="454.195" gradientUnits="userSpaceOnUse">
<stop offset="0.37" stop-color="#ECECEC"/>
<stop offset="0.685" stop-color="#B9B9B9"/>
<stop offset="0.945" stop-color="#868686"/>
</linearGradient>
<linearGradient id="paint1_linear_0_1" x1="214" y1="0" x2="214" y2="497" gradientUnits="userSpaceOnUse">
<stop offset="0.205" stop-color="#BDBDBD"/>
<stop offset="0.68" stop-color="#8A8A8A"/>
<stop offset="1" stop-color="#575757"/>
</linearGradient>
<linearGradient id="paint2_linear_0_1" x1="356" y1="0" x2="356" y2="425" gradientUnits="userSpaceOnUse">
<stop offset="0.285" stop-color="#BDBDBD"/>
<stop offset="0.61" stop-color="#8A8A8A"/>
<stop offset="1" stop-color="#575757"/>
</linearGradient>
<linearGradient id="paint3_linear_0_1" x1="193" y1="305.5" x2="342" y2="305.5" gradientUnits="userSpaceOnUse">
<stop stop-color="#BDBDBD"/>
<stop offset="1" stop-color="#575757"/>
</linearGradient>
<linearGradient id="paint4_linear_0_1" x1="368.5" y1="243" x2="368.5" y2="369" gradientUnits="userSpaceOnUse">
<stop stop-color="#BDBDBD"/>
<stop offset="1" stop-color="#575757"/>
</linearGradient>
</defs>
</svg>
